<mxfile host="app.diagrams.net" modified="2020-12-27T10:51:18.578Z" agent="5.0 (X11)" etag="ATCcrlNOTDW2vBs3gjqw" version="14.1.2" type="github">
  <diagram id="NVxNyo2ifCKapMFhYjiP" name="Page-1">
    <mxGraphModel dx="1422" dy="686" grid="1" gridSize="10" guides="1" tooltips="1" connect="1" arrows="1" fold="1" page="1" pageScale="1" pageWidth="827" pageHeight="1169" math="0" shadow="0">
      <root>
        <mxCell id="0" />
        <mxCell id="1" parent="0" />
        <mxCell id="m6uIh2kafp6VVx8X3005-1" value="&lt;div&gt;Tarifrecht&lt;/div&gt;" style="ellipse;whiteSpace=wrap;html=1;aspect=fixed;" vertex="1" parent="1">
          <mxGeometry x="340" y="270" width="80" height="80" as="geometry" />
        </mxCell>
        <mxCell id="m6uIh2kafp6VVx8X3005-2" value="ArbeitskÃ¤mpfe" style="rounded=0;whiteSpace=wrap;html=1;" vertex="1" parent="1">
          <mxGeometry x="490" y="150" width="120" height="60" as="geometry" />
        </mxCell>
        <mxCell id="m6uIh2kafp6VVx8X3005-3" value="Tarifrecht" style="rounded=0;whiteSpace=wrap;html=1;" vertex="1" parent="1">
          <mxGeometry x="150" y="150" width="120" height="60" as="geometry" />
        </mxCell>
        <mxCell id="m6uIh2kafp6VVx8X3005-6" value="" style="rounded=0;whiteSpace=wrap;html=1;" vertex="1" parent="1">
          <mxGeometry x="490" y="410" width="120" height="60" as="geometry" />
        </mxCell>
        <mxCell id="m6uIh2kafp6VVx8X3005-7" value="" style="rounded=0;whiteSpace=wrap;html=1;" vertex="1" parent="1">
          <mxGeometry x="150" y="410" width="120" height="60" as="geometry" />
        </mxCell>
      </root>
    </mxGraphModel>
  </diagram>
</mxfile>
